<svg width="1455" height="298" viewBox="0 0 1455 298" fill="none" xmlns="http://www.w3.org/2000/svg">
<path d="M538.281 209.487L526.571 116.453L479.351 237.397H472.173L421.931 115.661L410.598 209.487C410.41 211.07 410.221 214.039 410.221 214.831C410.221 225.52 415.509 228.093 430.62 228.885V237.397H380V228.885C392.088 228.291 396.621 225.916 397.944 215.623L411.354 107.545C411.354 95.8664 407.576 92.1054 393.41 91.5116V83H432.697C433.075 87.9486 434.208 90.7198 436.097 95.2726L480.673 204.538L522.793 95.2726C524.493 90.7198 525.815 87.9486 526.193 83H564.535V91.5116C550.369 92.1054 546.592 95.8664 546.592 107.545L560.002 215.623C561.324 225.916 565.858 228.291 577.946 228.885V237.397H518.26V228.885C533.37 228.093 538.659 225.52 538.659 214.831C538.659 214.039 538.47 211.07 538.281 209.487Z" fill="white"/>
<path d="M626.083 225.124C637.227 225.124 643.46 219.978 652.337 212.852V183.556L619.283 194.443C612.673 196.62 608.895 200.579 608.895 208.101C608.895 219.384 615.695 225.124 626.083 225.124ZM671.225 168.512V211.466C671.225 220.176 674.436 224.926 680.103 224.926C681.803 224.926 685.58 224.53 688.413 223.739L690.302 229.875C683.691 236.605 677.647 239.376 670.659 239.376C660.837 239.376 655.926 232.25 652.904 221.363C645.915 229.479 635.149 239.376 617.584 239.376C598.884 239.376 588.874 227.697 588.874 212.258C588.874 193.849 601.34 189.494 615.884 185.139L652.337 173.857V169.7C652.337 153.468 645.16 140.8 628.916 140.8C618.339 140.8 613.239 145.353 613.239 155.448C613.239 157.427 613.617 160.99 614.184 164.949L598.507 166.928C595.862 164.157 594.351 160.99 594.351 156.239C594.351 140.008 611.351 130.507 632.505 130.507C655.737 130.507 671.225 140.602 671.225 168.512Z" fill="white"/>
<path d="M723.524 109.92V132.486H752.989V143.373H723.524V204.34C723.524 218.592 729.38 224.926 740.901 224.926C746.001 224.926 750.912 223.936 756.012 221.363L758.278 226.906C753.556 232.448 745.057 239.376 732.024 239.376C717.669 239.376 704.636 231.656 704.636 211.268V143.373H690.093V136.445C700.103 130.111 708.225 122.589 717.858 109.92H723.524Z" fill="white"/>
<path d="M796.793 109.92V132.486H826.258V143.373H796.793V204.34C796.793 218.592 802.648 224.926 814.17 224.926C819.27 224.926 824.18 223.936 829.28 221.363L831.547 226.906C826.825 232.448 818.325 239.376 805.292 239.376C790.938 239.376 777.905 231.656 777.905 211.268V143.373H763.361V136.445C773.372 130.111 781.494 122.589 791.127 109.92H796.793Z" fill="white"/>
<path d="M886.668 130.507C914.245 130.507 928.6 148.718 928.6 172.471V178.013H854.559C854.559 205.33 865.892 222.155 890.824 222.155C906.501 222.155 917.078 214.633 923.311 206.517L928.789 209.091C924.633 223.541 911.601 239.376 884.969 239.376C854.559 239.376 836.615 216.613 836.615 188.306C836.615 153.666 857.77 130.507 886.668 130.507ZM881.947 142.779C867.025 142.779 857.203 153.27 855.126 168.116H907.823C907.823 154.26 898.946 142.779 881.947 142.779Z" fill="white"/>
<path d="M973.271 130.507L972.326 160.792C981.204 144.363 989.703 130.507 1003.49 130.507C1008.02 130.507 1010.86 131.694 1012.75 133.278V151.687H1005C992.914 151.687 984.981 154.656 972.326 170.096V217.602C972.326 227.499 977.237 228.093 991.214 229.677V237.397H938.328V229.677C947.017 228.489 953.438 227.499 953.438 218.394V152.083L939.272 145.155V140.404L966.66 130.507H973.271Z" fill="white"/>
<path d="M1082.26 239.376C1070.93 239.376 1062.24 236.209 1056.2 231.458V265.901C1056.2 275.006 1062.62 275.996 1071.31 277.184V284.903H1022.2V277.184C1030.89 275.996 1037.31 275.006 1037.31 265.901V152.083L1023.14 145.155V140.404L1050.53 130.507H1057.14L1056.2 148.916C1064.32 138.029 1077.54 130.507 1092.27 130.507C1121.36 130.507 1136.66 152.676 1136.66 179.993C1136.66 216.613 1112.11 239.376 1082.26 239.376ZM1084.34 228.093C1104.17 228.093 1117.21 213.841 1117.21 188.306C1117.21 167.72 1109.46 145.55 1085.1 145.55C1073.57 145.55 1062.62 151.489 1056.2 158.615V203.152C1056.2 221.957 1069.99 228.093 1084.34 228.093Z" fill="white"/>
<path d="M1202.87 227.104C1221.76 227.104 1231.2 211.268 1231.2 189.692C1231.2 164.157 1217.98 142.779 1195.32 142.779C1176.43 142.779 1166.98 158.615 1166.98 180.191C1166.98 205.726 1180.21 227.104 1202.87 227.104ZM1197.21 239.376C1167.36 239.376 1146.96 217.404 1146.96 186.921C1146.96 152.281 1171.9 130.507 1200.98 130.507C1230.83 130.507 1251.22 152.479 1251.22 182.962C1251.22 217.602 1226.29 239.376 1197.21 239.376Z" fill="white"/>
<path d="M1296.86 130.507L1295.91 160.792C1304.79 144.363 1313.29 130.507 1327.08 130.507C1331.61 130.507 1334.44 131.694 1336.33 133.278V151.687H1328.59C1316.5 151.687 1308.57 154.656 1295.91 170.096V217.602C1295.91 227.499 1300.82 228.093 1314.8 229.677V237.397H1261.91V229.677C1270.6 228.489 1277.02 227.499 1277.02 218.394V152.083L1262.86 145.155V140.404L1290.25 130.507H1296.86Z" fill="white"/>
<path d="M1380.25 109.92V132.486H1409.71V143.373H1380.25V204.34C1380.25 218.592 1386.1 224.926 1397.62 224.926C1402.72 224.926 1407.63 223.936 1412.73 221.363L1415 226.906C1410.28 232.448 1401.78 239.376 1388.75 239.376C1374.39 239.376 1361.36 231.656 1361.36 211.268V143.373H1346.81V136.445C1356.83 130.111 1364.95 122.589 1374.58 109.92H1380.25Z" fill="white"/>
<path fill-rule="evenodd" clip-rule="evenodd" d="M125.631 1.69144C127.297 0.493365 130.005 0.435882 131.696 1.56841L183.287 36.2813C184.998 37.4682 185.42 39.8109 184.239 41.5254L147.811 91.6609C146.617 93.3118 144.052 94.1932 142.057 93.6577L42.3926 66.0637C40.4231 65.4868 40.1478 63.9963 41.8056 62.7569L125.631 1.69144Z" fill="#FF3158"/>
<path fill-rule="evenodd" clip-rule="evenodd" d="M56.0651 92.3257L92.3414 142.598C93.5316 144.241 93.5842 146.98 92.4436 148.68L35.4893 235.28C34.3244 237.005 32.8427 236.799 32.1818 234.852L0.223077 135.969C-0.417575 134.008 0.370842 131.394 1.95881 130.146L50.8174 91.6167C52.4661 90.3613 54.8091 90.694 56.0651 92.3257Z" fill="#FF3158"/>
<path fill-rule="evenodd" clip-rule="evenodd" d="M204.943 20.3951L209.593 124.042C209.659 126.101 211.312 128.259 213.237 128.909L272.042 148.173C274.025 148.762 276.104 147.624 276.712 145.669L293.668 85.6801C294.21 83.7237 293.323 81.1299 291.665 79.9319L207.895 18.8068C206.208 17.6077 204.883 18.3197 204.943 20.3951Z" fill="white"/>
<path fill-rule="evenodd" clip-rule="evenodd" d="M298.411 161.371L201.598 197.844C199.69 198.553 198.135 200.797 198.135 202.836L198.057 264.889C198.102 266.959 199.8 268.619 201.873 268.562L263.949 266.206C265.984 266.128 268.147 264.481 268.778 262.538L300.832 163.714C301.44 161.72 300.339 160.667 298.411 161.371Z" fill="white"/>
<path fill-rule="evenodd" clip-rule="evenodd" d="M193.68 294.222L129.216 213.101C127.956 211.5 125.333 210.688 123.404 211.318L64.5625 230.401C62.6011 231.092 61.5718 233.222 62.257 235.202L83.6485 293.72C84.3712 295.623 86.6038 297.183 88.6432 297.183L192.222 297.245C194.283 297.212 194.952 295.87 193.68 294.222Z" fill="white"/>
<path d="M1440 140.489C1437.93 140.489 1435.99 140.108 1434.17 139.342C1432.35 138.576 1430.76 137.502 1429.39 136.12C1428.03 134.742 1426.96 133.123 1426.17 131.273C1425.39 129.423 1425 127.415 1425 125.247C1425 123.074 1425.39 121.065 1426.17 119.216C1426.96 117.366 1428.03 115.747 1429.39 114.369C1430.76 112.987 1432.35 111.912 1434.17 111.147C1435.99 110.385 1437.93 110 1440 110C1442.02 110 1443.94 110.385 1445.76 111.147C1447.58 111.912 1449.17 112.987 1450.53 114.369C1451.89 115.747 1452.98 117.366 1453.79 119.216C1454.6 121.065 1455 123.074 1455 125.247C1455 127.415 1454.6 129.423 1453.79 131.273C1452.98 133.123 1451.89 134.742 1450.53 136.12C1449.17 137.502 1447.58 138.576 1445.76 139.342C1443.94 140.108 1442.02 140.489 1440 140.489ZM1440 137.526C1441.72 137.526 1443.3 137.208 1444.74 136.567C1446.18 135.927 1447.41 135.074 1448.45 134.014C1449.48 132.954 1450.29 131.731 1450.87 130.348C1451.45 128.971 1451.74 127.54 1451.74 126.061V124.433C1451.74 122.949 1451.45 121.523 1450.87 120.14C1450.29 118.758 1449.48 117.539 1448.45 116.474C1447.41 115.415 1446.18 114.567 1444.74 113.921C1443.3 113.285 1441.72 112.963 1440 112.963C1438.28 112.963 1436.71 113.285 1435.27 113.921C1433.83 114.567 1432.59 115.415 1431.55 116.474C1430.52 117.539 1429.71 118.758 1429.13 120.14C1428.55 121.523 1428.26 122.949 1428.26 124.433V126.061C1428.26 127.54 1428.55 128.971 1429.13 130.348C1429.71 131.731 1430.52 132.954 1431.55 134.014C1432.59 135.074 1433.83 135.927 1435.27 136.567C1436.71 137.208 1438.28 137.526 1440 137.526ZM1437.35 133.234H1434.32V117.77H1441.14C1442.65 117.77 1443.84 118.204 1444.7 119.066C1445.56 119.928 1445.98 121.051 1445.98 122.433C1445.98 123.619 1445.71 124.577 1445.15 125.319C1444.59 126.061 1443.89 126.6 1443.03 126.947L1446.74 133.234H1443.34L1440 127.318H1437.35V133.234V133.234ZM1440.98 124.948C1442.15 124.948 1442.73 124.433 1442.73 123.397V121.769C1442.73 120.733 1442.15 120.213 1440.98 120.213H1437.35V124.948H1440.98Z" fill="white"/>
</svg>
