<svg xmlns="http://www.w3.org/2000/svg" width="16" height="16" fill="none" viewBox="0 0 16 16"><path fill="#000" fill-rule="evenodd" d="M6.678.156A.3.3 0 0 1 7 .15l2.743 1.845a.2.2 0 0 1 .05.279L7.857 4.939a.3.3 0 0 1-.306.106L2.253 3.578c-.104-.03-.119-.11-.03-.176zM2.98 4.974 4.91 7.646a.3.3 0 0 1 .005.323l-3.028 4.604c-.061.091-.14.08-.175-.023L.01 7.294a.3.3 0 0 1 .093-.31l2.597-2.048a.2.2 0 0 1 .28.038M10.894 1.15l.247 5.51c.004.11.091.224.194.258l3.126 1.024a.2.2 0 0 0 .248-.133l.901-3.188a.3.3 0 0 0-.106-.306l-4.453-3.25c-.09-.063-.16-.025-.157.085M15.862 8.644l-5.146 1.939a.3.3 0 0 0-.184.265l-.004 3.299c.002.11.093.198.203.195l3.3-.125a.3.3 0 0 0 .256-.195l1.704-5.253c.032-.106-.026-.162-.129-.125M10.295 15.706 6.87 11.394a.3.3 0 0 0-.31-.095l-3.127 1.014a.2.2 0 0 0-.123.256l1.137 3.11a.31.31 0 0 0 .266.184l5.506.004c.11-.002.145-.074.077-.161" clip-rule="evenodd"/></svg>